<?xml version="1.0" encoding="iso-8859-1"?>
<!-- Generator: Adobe Illustrator 19.0.0, SVG Export Plug-In . SVG Version: 6.00 Build 0)  -->
<svg xmlns="http://www.w3.org/2000/svg" xmlns:xlink="http://www.w3.org/1999/xlink" version="1.1" id="Capa_1" x="0px" y="0px" viewBox="0 0 512 512" style="enable-background:new 0 0 512 512;" xml:space="preserve" width="512px" height="512px">
<g>
	<g>
		<path d="M454.408,338.305l-0.712-0.159c-5.393-1.187-10.726,2.233-11.908,7.629c-1.182,5.395,2.233,10.727,7.629,11.908    l0.515,0.114c0.753,0.173,1.506,0.256,2.247,0.256c4.556,0,8.674-3.134,9.737-7.764    C463.152,344.906,459.791,339.541,454.408,338.305z" fill="#FFFFFF"/>
	</g>
</g>
<g>
	<g>
		<path d="M493.743,361.856c-3.63-4.163-9.947-4.597-14.109-0.968c-4.163,3.628-4.597,9.945-0.968,14.108    c8.596,9.863,13.33,22.498,13.33,35.577V492h-64.698v-56.5c0-5.522-4.478-10-10-10c-5.522,0-10,4.478-10,10V492h-248v-58.986    c0-5.522-4.478-10-10-10c-5.522,0-10,4.478-10,10V492H74.613v-81.462c0-25.235,17.891-47.476,42.54-52.884l80.308-17.617    c22.951-5.035,40.396-23.784,44.398-46.383c0.344,0.004,0.684,0.026,1.029,0.026h80.833c0.162,0,0.321-0.011,0.482-0.012    c4.018,22.596,21.47,41.33,44.43,46.351l43.394,9.488c0.72,0.157,1.438,0.232,2.146,0.232c4.598,0,8.737-3.19,9.76-7.866    c1.18-5.395-2.238-10.726-7.634-11.905l-43.393-9.488c-14.698-3.213-25.932-15.039-28.836-29.406    c34.637-9.04,60.277-40.589,60.277-78.018v-71.014c0-4.253-0.229-8.453-0.666-12.591c0.914,0.47,1.837,0.925,2.778,1.356    c8.642,3.952,17.793,5.934,26.967,5.934c8.198,0,16.415-1.584,24.292-4.759l8.526-3.438c2.604-1.05,4.647-3.146,5.63-5.777    c0.981-2.631,0.813-5.554-0.468-8.054L459.109,90.69c-2.236-4.371-7.315-6.473-11.99-4.954l-14.612,4.744    c-5.168,1.678-10.534,2.373-15.845,2.138c9.528-3.826,18.461-9.163,26.394-15.904c17.334-14.731,28.9-35.208,32.569-57.658    l1.216-7.444c0.473-2.896-0.35-5.853-2.249-8.089c-1.9-2.235-4.687-3.523-7.62-3.523h-36.666c-4.911,0-9.096,3.566-9.874,8.415    l-2.489,15.51c-3.418,21.298-15.738,40.11-33.837,51.788c-21.397-31.764-57.693-52.699-98.789-52.699h-4.022    c-65.634,0-119.03,53.396-119.03,119.029v71.014c0,37.24,25.385,68.65,59.757,77.87c-2.847,14.436-14.102,26.341-28.845,29.575    l-34.378,7.542l-14.347-24.85l14.287-8.249c4.783-2.762,6.422-8.877,3.66-13.66c-2.761-4.782-8.877-6.422-13.66-3.66    l-10.438,6.027L68.415,162.608c-10.107-17.509-32.576-23.529-50.086-13.42C0.821,159.297-5.2,181.766,4.908,199.274    l69.885,121.042l-10.439,6.027c-4.783,2.762-6.422,8.877-3.66,13.66c1.853,3.208,5.213,5.002,8.67,5.002    c1.696,0,3.416-0.433,4.99-1.342l14.288-8.249l5.528,9.575c-8.894,4.698-16.827,11.172-23.187,19.077    c-10.557,13.124-16.371,29.628-16.371,46.471V502c0,5.522,4.478,10,10,10h437.384c5.522,0,10-4.478,10-10v-91.426    C511.996,392.663,505.514,375.361,493.743,361.856z M437.69,27.095L438.828,20h16.26c-4.588,20.864-17.429,38.14-34.748,48.617    C429.234,56.48,435.25,42.286,437.69,27.095z M438.683,109.503l6.506-2.112l3.413,6.667c-11.092,3.992-23.034,3.498-33.824-1.438    c-0.05-0.023-0.099-0.046-0.148-0.069C422.683,113.053,430.839,112.05,438.683,109.503z M182.263,213.057v-71.014    c0-54.604,44.425-99.029,99.03-99.029h4.022c54.605,0,99.03,44.425,99.03,99.029v71.014c0,33.428-27.196,60.624-60.625,60.624    h-80.833C209.459,273.681,182.263,246.484,182.263,213.057z M138.3,332.54l-25.051,5.495l-7.287-12.62l10.584-6.111l10.584-6.111    L138.3,332.54z M22.229,189.275c-2.226-3.856-2.817-8.346-1.664-12.647c1.151-4.3,3.909-7.894,7.765-10.119    c2.618-1.512,5.479-2.229,8.306-2.229c5.764,0,11.377,2.989,14.46,8.329l3.731,6.463L25.96,195.738L22.229,189.275z     M35.96,213.058l28.866-16.667l12.051,20.873L48.011,233.93L35.96,213.058z M70.062,272.123l-12.051-20.872l28.866-16.666    l12.051,20.873L70.062,272.123z M92.114,310.318l-12.052-20.874l28.866-16.665l12.051,20.873L92.114,310.318z" fill="#FFFFFF"/>
	</g>
</g>
<g>
	<g>
		<path d="M337.055,114.395h-107.5c-22.056,0-40,17.944-40,40v7.905c0,22.056,17.944,40,40,40h107.5c22.056,0,40-17.945,40-40    v-7.905C377.055,132.339,359.111,114.395,337.055,114.395z M357.055,162.3c0,11.028-8.972,20-20,20h-107.5    c-11.028,0-20-8.972-20-20v-7.905c0-11.028,8.972-20,20-20h107.5c11.028,0,20,8.972,20,20V162.3z" fill="#FFFFFF"/>
	</g>
</g>
<g>
	<g>
		<path d="M257.305,148.348h-18c-5.522,0-10,4.478-10,10c0,5.522,4.478,10,10,10h18c5.522,0,10-4.478,10-10    C267.305,152.826,262.827,148.348,257.305,148.348z" fill="#FFFFFF"/>
	</g>
</g>
<g>
	<g>
		<path d="M327.305,148.348h-18c-5.522,0-10,4.478-10,10c0,5.522,4.478,10,10,10h18c5.522,0,10-4.478,10-10    C337.305,152.826,332.827,148.348,327.305,148.348z" fill="#FFFFFF"/>
	</g>
</g>
<g>
	<g>
		<path d="M156.366,389.93c-1.86-1.86-4.44-2.93-7.07-2.93s-5.2,1.069-7.07,2.93c-1.859,1.86-2.93,4.44-2.93,7.07    s1.07,5.21,2.93,7.069c1.86,1.86,4.44,2.931,7.07,2.931s5.21-1.07,7.07-2.931c1.859-1.859,2.93-4.439,2.93-7.069    S158.226,391.79,156.366,389.93z" fill="#FFFFFF"/>
	</g>
</g>
<g>
</g>
<g>
</g>
<g>
</g>
<g>
</g>
<g>
</g>
<g>
</g>
<g>
</g>
<g>
</g>
<g>
</g>
<g>
</g>
<g>
</g>
<g>
</g>
<g>
</g>
<g>
</g>
<g>
</g>
</svg>
